<?xml version="1.0" encoding="UTF-8"?>
<svg id="Layer_1" xmlns="http://www.w3.org/2000/svg" version="1.1" viewBox="0 0 640 640">
  <!-- Generator: Adobe Illustrator 30.0.0, SVG Export Plug-In . SVG Version: 2.1.1 Build 123)  -->
  <defs>
    <style>
      .st0 {
        stroke-linecap: round;
      }

      .st0, .st1 {
        stroke-linejoin: round;
      }

      .st0, .st1, .st2 {
        fill: none;
        stroke: #000;
        stroke-width: 29px;
      }

      .st2 {
        stroke-miterlimit: 10;
      }
    </style>
  </defs>
  <path class="st2" d="M320,256c30.9,0,56,25.1,56,56s-25.1,56-56,56-56-25.1-56-56,25.1-56,56-56Z"/>
  <path class="st2" d="M320,416c53,0,96,43,96,96v32c0,17.7-14.3,32-32,32h-128c-17.7,0-32-14.3-32-32v-32c0-53,43-96,96-96Z"/>
  <path class="st2" d="M96,352c0-26.5,21.5-48,48-48s48,21.5,48,48-21.5,48-48,48-48-21.5-48-48Z"/>
  <path class="st2" d="M448,352c0-26.5,21.5-48,48-48s48,21.5,48,48-21.5,48-48,48-48-21.5-48-48Z"/>
  <path class="st1" d="M144,432c15.3,0,29.6,4.3,41.8,11.8-6.3,16.2-9.8,33.8-9.8,52.2v48c0,11.4,2.4,22.2,6.7,32h-87.8c-17.1,0-30.9-13.8-30.9-30.9v-33.1c0-44.2,35.8-80,80-80Z"/>
  <path class="st1" d="M457.3,576c4.3-9.8,6.7-20.6,6.7-32v-48c0-18.4-3.5-36-9.8-52.2,12.2-7.5,26.5-11.8,41.8-11.8,44.2,0,80,35.8,80,80v33.1c0,17-13.8,30.9-30.9,30.9h-87.8Z"/>
  <polyline class="st0" points="224 133.78 159.97 198.89 96.2 133.78 159.97 198.89 159.97 43.4"/>
  <polyline class="st0" points="533.75 133.78 469.72 198.89 405.95 133.78 469.72 198.89 469.72 43.4"/>
</svg>