<?xml version="1.0" encoding="UTF-8"?>
<svg id="Layer_1" xmlns="http://www.w3.org/2000/svg" version="1.1" viewBox="0 0 368.28 68.28">
  <!-- Generator: Adobe Illustrator 30.0.0, SVG Export Plug-In . SVG Version: 2.1.1 Build 123)  -->
  <defs>
    <style>
      .st0 {
        fill: #e86e24;
      }
    </style>
  </defs>
  <path class="st0" d="M44.46,32.44v13.29c-.5.64-1.29,1.34-2.36,2.09s-2.46,1.39-4.18,1.93-3.83.81-6.33.81c-2.17,0-4.16-.36-5.95-1.09s-3.34-1.79-4.64-3.2-2.3-3.12-3-5.16-1.05-4.35-1.05-6.96v-2.25c0-2.61.33-4.93,1-6.96s1.62-3.75,2.86-5.16,2.73-2.48,4.48-3.21,3.69-1.1,5.85-1.1c2.89,0,5.27.48,7.14,1.43s3.3,2.26,4.3,3.93,1.62,3.57,1.88,5.73h-6.28c-.17-1.19-.52-2.23-1.03-3.13s-1.25-1.6-2.19-2.11-2.17-.76-3.67-.76c-1.27,0-2.38.25-3.35.75s-1.78,1.23-2.44,2.18-1.15,2.13-1.49,3.54-.5,3.02-.5,4.83v2.3c0,1.83.19,3.45.56,4.86s.92,2.6,1.63,3.56,1.59,1.69,2.65,2.18,2.25.74,3.6.74c1.22,0,2.23-.11,3.04-.32s1.45-.46,1.93-.76.86-.59,1.12-.87v-6.4h-6.77v-4.71h13.22Z"/>
  <path class="st0" d="M68.42,41.23c0-.66-.1-1.25-.29-1.77s-.55-1-1.05-1.43-1.22-.85-2.13-1.27-2.09-.85-3.53-1.3c-1.59-.5-3.08-1.06-4.45-1.69s-2.58-1.35-3.62-2.18-1.85-1.79-2.43-2.87-.87-2.35-.87-3.79.3-2.69.9-3.84,1.46-2.15,2.57-2.99,2.42-1.48,3.93-1.93,3.18-.68,5-.68c2.53,0,4.72.46,6.57,1.38s3.29,2.17,4.3,3.75,1.52,3.35,1.52,5.32h-6.42c0-1.06-.22-2-.67-2.81s-1.12-1.45-2.02-1.92-2.03-.7-3.39-.7-2.4.2-3.27.59-1.52.92-1.95,1.59-.64,1.42-.64,2.25c0,.62.15,1.18.45,1.68s.74.95,1.34,1.38,1.33.83,2.21,1.2,1.91.73,3.08,1.09c1.88.56,3.52,1.19,4.93,1.88s2.59,1.47,3.54,2.34,1.66,1.86,2.13,2.95.71,2.34.71,3.73c0,1.47-.29,2.78-.87,3.94s-1.41,2.14-2.48,2.95-2.37,1.43-3.88,1.85-3.19.63-5.05.63c-1.66,0-3.29-.22-4.91-.67s-3.08-1.12-4.39-2.02-2.36-2.04-3.14-3.42-1.17-3-1.17-4.86h6.47c0,1.08.18,2,.53,2.75s.85,1.38,1.5,1.85,1.41.82,2.29,1.04,1.82.33,2.84.33c1.31,0,2.39-.18,3.25-.55s1.49-.88,1.92-1.54.64-1.41.64-2.25Z"/>
  <path class="st0" d="M111.75,38.86h6.45c-.17,2.28-.8,4.3-1.9,6.06s-2.62,3.14-4.57,4.14-4.32,1.5-7.1,1.5c-2.14,0-4.07-.38-5.78-1.14s-3.17-1.84-4.38-3.26-2.14-3.12-2.78-5.11-.96-4.23-.96-6.71v-2.6c0-2.48.33-4.73.98-6.73s1.6-3.71,2.82-5.12,2.7-2.5,4.43-3.27,3.66-1.15,5.8-1.15c2.78,0,5.13.51,7.05,1.54s3.41,2.43,4.48,4.21,1.7,3.83,1.92,6.14h-6.45c-.12-1.44-.43-2.66-.93-3.66s-1.23-1.76-2.2-2.29-2.27-.79-3.88-.79c-1.25,0-2.35.23-3.29.7s-1.73,1.17-2.36,2.1-1.09,2.09-1.41,3.47-.47,2.98-.47,4.79v2.65c0,1.73.14,3.29.42,4.66s.72,2.54,1.31,3.49,1.36,1.68,2.3,2.18,2.05.75,3.35.75c1.58,0,2.86-.25,3.86-.75s1.75-1.23,2.27-2.2.86-2.17,1-3.61Z"/>
  <path class="st0" d="M121.59,37.66v-.49c0-1.86.27-3.57.8-5.14s1.3-2.93,2.32-4.09,2.26-2.06,3.73-2.71,3.14-.97,5.02-.97,3.6.32,5.07.97,2.72,1.55,3.74,2.71,1.79,2.52,2.32,4.09.8,3.29.8,5.14v.49c0,1.84-.27,3.55-.8,5.12s-1.3,2.94-2.32,4.1-2.26,2.07-3.73,2.71-3.15.96-5.04.96-3.55-.32-5.04-.96-2.73-1.54-3.75-2.71-1.79-2.53-2.32-4.1-.8-3.28-.8-5.12ZM127.78,37.17v.49c0,1.11.11,2.15.33,3.12s.55,1.82,1.01,2.55,1.04,1.31,1.77,1.72,1.6.62,2.61.62,1.86-.21,2.58-.62,1.31-.99,1.77-1.72.8-1.59,1.02-2.55.33-2.01.33-3.12v-.49c0-1.09-.11-2.12-.33-3.08s-.56-1.81-1.02-2.55-1.05-1.33-1.78-1.76-1.6-.64-2.61-.64-1.86.21-2.58.64-1.3,1.02-1.76,1.76-.79,1.59-1.01,2.55-.33,1.99-.33,3.08Z"/>
  <path class="st0" d="M155.93,30.14v19.95h-6.19v-25.36h5.81l.38,5.41ZM154.95,36.49h-1.83c.02-1.84.27-3.52.75-5.02s1.17-2.79,2.05-3.87,1.93-1.91,3.15-2.48,2.58-.87,4.08-.87c1.22,0,2.32.17,3.3.52s1.83.89,2.54,1.64,1.26,1.73,1.64,2.94.57,2.7.57,4.46v16.27h-6.23v-16.31c0-1.16-.17-2.07-.5-2.74s-.82-1.15-1.45-1.43-1.41-.42-2.33-.42-1.79.19-2.5.57-1.3.91-1.78,1.58-.84,1.45-1.09,2.32-.38,1.82-.38,2.84Z"/>
  <path class="st0" d="M190.62,43.15c0-.53-.14-1.01-.42-1.43s-.81-.81-1.58-1.16-1.9-.68-3.39-1c-1.31-.28-2.52-.63-3.63-1.05s-2.06-.93-2.86-1.54-1.42-1.31-1.86-2.13-.67-1.77-.67-2.85.23-2.04.68-2.96,1.11-1.75,1.97-2.46,1.91-1.27,3.14-1.69,2.62-.62,4.17-.62c2.16,0,4.01.35,5.57,1.05s2.75,1.67,3.57,2.89,1.24,2.61,1.24,4.14h-6.19c0-.67-.15-1.28-.46-1.83s-.77-.99-1.39-1.32-1.41-.5-2.37-.5c-.86,0-1.58.14-2.17.42s-1.03.65-1.32,1.1-.45.95-.45,1.5c0,.41.08.77.25,1.09s.43.61.81.88.89.51,1.54.73,1.45.43,2.4.63c1.89.38,3.54.87,4.96,1.49s2.52,1.43,3.32,2.45,1.2,2.31,1.2,3.89c0,1.12-.24,2.15-.73,3.08s-1.19,1.74-2.11,2.43-2.02,1.22-3.3,1.61-2.73.57-4.34.57c-2.33,0-4.3-.42-5.91-1.25s-2.83-1.9-3.66-3.19-1.24-2.63-1.24-4.02h5.93c.05.98.31,1.77.8,2.37s1.1,1.02,1.84,1.28,1.53.39,2.36.39c.94,0,1.73-.13,2.37-.39s1.12-.61,1.45-1.05.49-.96.49-1.54Z"/>
  <path class="st0" d="M217.24,38.81l1.92-.05c0,1.7-.19,3.27-.56,4.71s-.96,2.68-1.75,3.74-1.79,1.88-2.99,2.46-2.62.88-4.27.88c-1.25,0-2.39-.18-3.42-.53s-1.92-.91-2.66-1.66-1.32-1.73-1.72-2.93-.61-2.64-.61-4.32v-16.38h6.19v16.43c0,.84.1,1.55.29,2.11s.47,1.02.82,1.37.77.6,1.24.75.99.22,1.54.22c1.5,0,2.68-.3,3.55-.9s1.49-1.41,1.86-2.44.56-2.18.56-3.46ZM216.45,44.06v-19.34h6.23v25.36h-5.86l-.38-6.02Z"/>
  <path class="st0" d="M234.7,14.08v36h-6.21V14.08h6.21Z"/>
  <path class="st0" d="M252.61,24.73v4.45h-14.53v-4.45h14.53ZM241.97,18.49h6.21v24.28c0,.75.1,1.33.3,1.73s.51.68.91.82.89.21,1.45.21c.41,0,.78-.02,1.12-.07s.63-.09.87-.14l.02,4.64c-.52.17-1.1.31-1.75.42s-1.38.16-2.19.16c-1.39,0-2.61-.24-3.66-.71s-1.86-1.25-2.44-2.32-.87-2.49-.87-4.25v-24.77Z"/>
  <path class="st0" d="M271.57,34.64l.05,3.68h-3.91c-.97,0-1.82.1-2.55.29s-1.34.48-1.8.84-.82.8-1.05,1.31-.35,1.08-.35,1.72.14,1.19.43,1.69.71.89,1.27,1.18,1.21.43,1.96.43c1.09,0,2.05-.22,2.86-.67s1.45-.99,1.9-1.63.7-1.25.73-1.83l1.78,2.67c-.22.64-.55,1.32-.98,2.04s-1,1.39-1.69,2.02-1.52,1.14-2.48,1.55-2.09.61-3.38.61c-1.64,0-3.11-.33-4.41-.98s-2.32-1.55-3.07-2.7-1.12-2.44-1.12-3.89c0-1.34.25-2.53.75-3.56s1.24-1.9,2.23-2.61,2.21-1.25,3.67-1.62,3.14-.55,5.03-.55h4.17ZM270.7,44.69v-11.7c0-.86-.15-1.6-.45-2.23s-.75-1.11-1.36-1.45-1.38-.52-2.32-.52c-.83,0-1.55.14-2.17.42s-1.09.68-1.42,1.18-.49,1.09-.49,1.75h-6.21c0-1.05.25-2.04.75-2.99s1.21-1.79,2.14-2.53,2.05-1.32,3.35-1.75,2.77-.63,4.39-.63c1.92,0,3.64.32,5.14.97s2.7,1.62,3.56,2.92,1.3,2.93,1.3,4.9v11.06c0,1.27.08,2.35.25,3.25s.41,1.68.74,2.33v.4h-6.3c-.3-.64-.52-1.46-.68-2.45s-.23-1.97-.23-2.94Z"/>
  <path class="st0" d="M288.59,30.14v19.95h-6.19v-25.36h5.81l.38,5.41ZM287.6,36.49h-1.83c.02-1.84.27-3.52.75-5.02s1.17-2.79,2.05-3.87,1.93-1.91,3.15-2.48,2.58-.87,4.08-.87c1.22,0,2.32.17,3.3.52s1.83.89,2.54,1.64,1.26,1.73,1.64,2.94.57,2.7.57,4.46v16.27h-6.23v-16.31c0-1.16-.17-2.07-.5-2.74s-.82-1.15-1.45-1.43-1.41-.42-2.33-.42-1.79.19-2.5.57-1.3.91-1.78,1.58-.84,1.45-1.09,2.32-.38,1.82-.38,2.84Z"/>
  <path class="st0" d="M319.74,45.68c.88,0,1.66-.17,2.34-.52s1.24-.83,1.65-1.45.64-1.35.67-2.18h5.84c-.03,1.72-.52,3.26-1.45,4.62s-2.18,2.43-3.74,3.22-3.29,1.18-5.21,1.18-3.66-.33-5.11-.98-2.66-1.57-3.62-2.74-1.68-2.53-2.16-4.08-.71-3.2-.71-4.97v-.75c0-1.77.24-3.42.71-4.97s1.2-2.91,2.16-4.08,2.17-2.09,3.62-2.74,3.15-.98,5.09-.98c2.05,0,3.85.4,5.4,1.2s2.77,1.92,3.66,3.38,1.34,3.16,1.37,5.13h-5.84c-.03-.91-.23-1.72-.61-2.44s-.91-1.3-1.59-1.73-1.52-.66-2.51-.66c-1.05,0-1.92.22-2.61.66s-1.23,1.04-1.62,1.79-.65,1.6-.8,2.53-.22,1.9-.22,2.92v.75c0,1.03.07,2.02.22,2.95s.41,1.78.8,2.52.92,1.33,1.62,1.77,1.58.66,2.66.66Z"/>
  <path class="st0" d="M338.44,24.73l5.74,18.68,1.01,6.54-4.27.77-9.16-25.99h6.68ZM341.79,47.27l6.8-22.55h6.63l-10.17,29.2c-.23.62-.54,1.3-.9,2.04s-.86,1.43-1.46,2.1-1.37,1.21-2.29,1.63-2.02.63-3.32.63c-.56,0-1.06-.04-1.5-.12s-.9-.18-1.38-.3v-4.64c.16.02.34.03.55.04s.39.01.55.01c.91,0,1.66-.11,2.25-.32s1.07-.55,1.44-1.01.68-1.06.93-1.79l1.88-4.92Z"/>
</svg>