<?xml version="1.0" encoding="UTF-8"?>
<svg id="Layer_1" xmlns="http://www.w3.org/2000/svg" version="1.1" viewBox="0 0 640 640">
  <!-- Generator: Adobe Illustrator 30.0.0, SVG Export Plug-In . SVG Version: 2.1.1 Build 123)  -->
  <defs>
    <style>
      .st0 {
        stroke-width: 25px;
      }

      .st0, .st1 {
        fill: none;
        stroke: #000;
        stroke-miterlimit: 10;
      }

      .st1 {
        stroke-width: 29px;
      }
    </style>
  </defs>
  <rect class="st1" x="96" y="96" width="448" height="192" rx="64" ry="64"/>
  <path class="st0" d="M376,168c13.3,0,24,10.7,24,24s-10.7,24-24,24-24-10.7-24-24,10.7-24,24-24Z"/>
  <path class="st0" d="M432,192c0-13.3,10.7-24,24-24s24,10.7,24,24-10.7,24-24,24-24-10.7-24-24Z"/>
  <rect class="st1" x="96" y="352" width="448" height="192" rx="64" ry="64"/>
  <path class="st0" d="M376,424c13.3,0,24,10.7,24,24s-10.7,24-24,24-24-10.7-24-24,10.7-24,24-24Z"/>
  <path class="st0" d="M432,448c0-13.3,10.7-24,24-24s24,10.7,24,24-10.7,24-24,24-24-10.7-24-24Z"/>
</svg>